# xmcd CD database file
#
# Track frame offsets:
#	150
#	14676
#	28056
#	40934
#	55746
#	67833
#	80751
#	94537
#	106980
#	119208
#	132717
#	143717
#	157252
#	170260
#	184481
#	199347
#	212271
#	224698
#	238002
#	250388
#	264928
#	278919
#	292743
#	304916
#	317248
#
# Disc length: 4418 seconds
#
# Revision: 0
# Processed by: cddbd v1.5.2PL0 Copyright (c) Steve Scherf et al.
# Submitted via: Feurio! 1.68 - http://www.feurio.com
#
DISCID=84114019
DTITLE=Milton Brown And His Musical Brownies - Western Swing Chronicles Volume 
DTITLE=1...OJL - 1000
DYEAR=1900
DGENRE=country
TTITLE0=Nancy Jane
TTITLE1=Brownies's Stomp
TTITLE2=Beale Street Mama
TTITLE3=St. Louis Blues
TTITLE4=Yes Sir!
TTITLE5=Taking Off
TTITLE6=Avalon
TTITLE7=Memphis Blues
TTITLE8=Easy Ridin' Papa
TTITLE9=You're Tired Of Me
TTITLE10=Copenhagen
TTITLE11=Beautiful Texas
TTITLE12=Somebody's Been Using That Thing
TTITLE13=This Morning, This Evening, So Soon
TTITLE14=An Old Watermill By A Waterfall
TTITLE15=Going Up Brushy Fork
TTITLE16=In The Shade Of The Old Apple Tree
TTITLE17=Sweet Georgia Brown
TTITLE18=Some Of These Days
TTITLE19=Sweet Jennie Lee
TTITLE20=My Precious Sonny Boy
TTITLE21="Ida" Sweet As Apple Cider
TTITLE22=Washington and Lee Swing
TTITLE23=Wright Or Wrong
TTITLE24=A Thousand Good Nights
EXTD=
EXTT0=
EXTT1=
EXTT2=
EXTT3=
EXTT4=
EXTT5=
EXTT6=
EXTT7=
EXTT8=
EXTT9=
EXTT10=
EXTT11=
EXTT12=
EXTT13=
EXTT14=
EXTT15=
EXTT16=
EXTT17=
EXTT18=
EXTT19=
EXTT20=
EXTT21=
EXTT22=
EXTT23=
EXTT24=
PLAYORDER=
